<svg xmlns="http://www.w3.org/2000/svg" viewBox="0 0 64 64" fill="none">
  <!-- Lighthouse -->
  <!-- Base platform -->
  <rect x="10" y="54" width="44" height="4" rx="1" fill="#0284c7"/>
  <!-- Lighthouse tower - tapered -->
  <path d="M22 54 L25 20 L39 20 L42 54 Z" fill="#38bdf8"/>
  <!-- Tower stripes -->
  <path d="M22.9 47 L41.1 47 L41.4 44 L22.6 44 Z" fill="#0284c7"/>
  <path d="M23.8 38 L40.2 38 L40.6 35 L23.4 35 Z" fill="#0284c7"/>
  <path d="M24.7 29 L39.3 29 L39.7 26 L24.3 26 Z" fill="#0284c7"/>
  <!-- Lantern room base -->
  <rect x="23" y="14" width="18" height="7" rx="1" fill="#0369a1"/>
  <!-- Gallery railing -->
  <rect x="22" y="14" width="20" height="2" rx="0.5" fill="#0284c7"/>
  <!-- Lantern room (octagonal feel) -->
  <path d="M26 8 L38 8 L40 14 L24 14 Z" fill="#0369a1"/>
  <!-- Lantern glass -->
  <rect x="27" y="9" width="10" height="5" rx="0.5" fill="#7dd3fc"/>
  <!-- Light beam -->
  <path d="M32 11 L56 4 L56 18 Z" fill="#fde68a" opacity="0.35"/>
  <!-- Roof cap -->
  <polygon points="32,3 40,8 24,8" fill="#0284c7"/>
  <circle cx="32" cy="3" r="1.5" fill="#7dd3fc"/>
  <!-- Door -->
  <path d="M29 54 L29 47 Q32 43 35 47 L35 54 Z" fill="#075985"/>
  <!-- Windows -->
  <rect x="29" y="36" width="6" height="5" rx="0.5" fill="#075985"/>
  <!-- Rocky base/cliffs -->
  <path d="M4 58 Q10 54 18 56 Q26 52 32 54 Q38 52 46 56 Q54 54 60 58 Z" fill="#0369a1" opacity="0.6"/>
  <!-- Water waves -->
  <path d="M4 60 Q14 57 24 60 Q34 57 44 60 Q54 57 60 60" fill="none" stroke="#7dd3fc" stroke-width="1.2" stroke-linecap="round"/>
</svg>
