<svg xmlns="http://www.w3.org/2000/svg" viewBox="0 0 420 300" preserveAspectRatio="none">
  <defs>
    <linearGradient id="rim" x1="0" y1="0" x2="1" y2="1">
      <stop offset="0" stop-color="#ffe9a8"/>
      <stop offset=".35" stop-color="#d6a65b"/>
      <stop offset=".7" stop-color="#795326"/>
      <stop offset="1" stop-color="#2b1b0f"/>
    </linearGradient>
  </defs>
  <rect x="6" y="6" width="408" height="288" rx="18" fill="#07111e" stroke="url(#rim)" stroke-width="4"/>
  <rect x="17" y="17" width="386" height="266" rx="12" fill="none" stroke="#f8d98b" stroke-opacity=".24" stroke-width="2"/>
  <path d="M28 6h72l-18 13H44zm292 0h72l-16 13h-40zM28 294h72l-18-13H44zm292 0h72l-16-13h-40z" fill="#f8d98b" opacity=".62"/>
  <path d="M7 58c26-5 43-23 50-51M413 58c-26-5-43-23-50-51M7 242c26 5 43 23 50 51M413 242c-26 5-43 23-50 51" fill="none" stroke="#f8d98b" stroke-opacity=".55" stroke-width="3"/>
  <path d="M34 38h352M34 262h352" stroke="#5a3a18" stroke-opacity=".55" stroke-width="2"/>
</svg>
