<svg xmlns="http://www.w3.org/2000/svg" viewBox="0 0 320 220" preserveAspectRatio="none">
  <defs>
    <linearGradient id="edge" x1="0" y1="0" x2="1" y2="1">
      <stop offset="0" stop-color="#f8d98b"/>
      <stop offset="0.45" stop-color="#9a6a35"/>
      <stop offset="1" stop-color="#3b2414"/>
    </linearGradient>
    <linearGradient id="inner" x1="0" y1="0" x2="0" y2="1">
      <stop offset="0" stop-color="#17365a" stop-opacity=".92"/>
      <stop offset=".55" stop-color="#0c2038" stop-opacity=".82"/>
      <stop offset="1" stop-color="#050b15" stop-opacity=".92"/>
    </linearGradient>
  </defs>
  <rect x="7" y="7" width="306" height="206" rx="10" fill="url(#inner)" stroke="url(#edge)" stroke-width="3"/>
  <rect x="16" y="16" width="288" height="188" rx="7" fill="none" stroke="#f8d98b" stroke-opacity=".22" stroke-width="1"/>
  <path d="M22 7h44l-11 9H31zm232 0h44l-9 9h-25zM22 213h44l-11-9H31zm232 0h44l-9-9h-25z" fill="#f8d98b" opacity=".55"/>
  <path d="M7 38c17-4 27-14 31-31M313 38c-17-4-27-14-31-31M7 182c17 4 27 14 31 31M313 182c-17 4-27 14-31 31" fill="none" stroke="#f8d98b" stroke-opacity=".48" stroke-width="2"/>
</svg>
