<svg xmlns="http://www.w3.org/2000/svg" viewBox="0 0 64 64" role="img" aria-label="fuel barrel">
  <defs>
    <linearGradient id="barrel" x1="17" y1="7" x2="48" y2="58">
      <stop offset="0" stop-color="#fb923c"/>
      <stop offset=".55" stop-color="#b45309"/>
      <stop offset="1" stop-color="#451a03"/>
    </linearGradient>
  </defs>
  <path d="M19 10h26c3 0 6 4 6 9v26c0 5-3 9-6 9H19c-3 0-6-4-6-9V19c0-5 3-9 6-9z" fill="url(#barrel)" stroke="#fed7aa" stroke-width="2"/>
  <path d="M14 22h36M14 42h36M23 10v44M41 10v44" stroke="#431407" stroke-width="3" opacity=".55"/>
  <path d="M32 18c8 7 10 14 4 19-3 3-9 2-11-2-2-5 1-9 7-17z" fill="#fde68a" stroke="#7c2d12" stroke-width="2"/>
</svg>
