<svg xmlns="http://www.w3.org/2000/svg" viewBox="0 0 64 64" fill="none">
  <!-- Intense sun -->
  <circle cx="32" cy="22" r="13" fill="#EF4444"/>
  <circle cx="32" cy="22" r="9" fill="#F97316"/>
  <circle cx="32" cy="22" r="6" fill="#FCD34D"/>
  <!-- Sun rays (short, intense) -->
  <line x1="32" y1="4" x2="32" y2="9" stroke="#EF4444" stroke-width="3" stroke-linecap="round"/>
  <line x1="50" y1="22" x2="55" y2="22" stroke="#EF4444" stroke-width="3" stroke-linecap="round"/>
  <line x1="14" y1="22" x2="9" y2="22" stroke="#EF4444" stroke-width="3" stroke-linecap="round"/>
  <line x1="45.3" y1="8.7" x2="49" y2="5" stroke="#F97316" stroke-width="2.5" stroke-linecap="round"/>
  <line x1="18.7" y1="8.7" x2="15" y2="5" stroke="#F97316" stroke-width="2.5" stroke-linecap="round"/>
  <line x1="45.3" y1="35.3" x2="49" y2="39" stroke="#F97316" stroke-width="2.5" stroke-linecap="round"/>
  <line x1="18.7" y1="35.3" x2="15" y2="39" stroke="#F97316" stroke-width="2.5" stroke-linecap="round"/>
  <!-- Heat shimmer waves (rising from below) -->
  <path d="M10 46 Q16 41 22 46 Q28 51 34 46 Q40 41 46 46 Q52 51 56 46" stroke="#F97316" stroke-width="2.5" fill="none" stroke-linecap="round"/>
  <path d="M8 56 Q14 51 20 56 Q26 61 32 56 Q38 51 44 56 Q50 61 56 56" stroke="#EF4444" stroke-width="2" fill="none" stroke-linecap="round" opacity="0.7"/>
</svg>
