<svg xmlns="http://www.w3.org/2000/svg" viewBox="0 0 64 64" fill="none">
  <!-- Storm cloud -->
  <circle cx="22" cy="16" r="7" fill="#6B7280"/>
  <circle cx="33" cy="12" r="9" fill="#4B5563"/>
  <ellipse cx="43" cy="18" rx="8" ry="7" fill="#6B7280"/>
  <rect x="14" y="18" width="36" height="7" rx="3.5" fill="#6B7280"/>
  <!-- Large rough waves -->
  <path d="M4 36 Q12 28 20 36 Q28 44 36 36 Q44 28 52 36 Q58 42 62 36" stroke="#3B82F6" stroke-width="3.5" fill="none" stroke-linecap="round" stroke-linejoin="round"/>
  <path d="M4 48 Q12 40 20 48 Q28 56 36 48 Q44 40 52 48 Q58 54 62 48" stroke="#1D4ED8" stroke-width="3" fill="none" stroke-linecap="round" stroke-linejoin="round"/>
  <!-- Wave caps (white foam) -->
  <circle cx="20" cy="36" r="2" fill="white" opacity="0.7"/>
  <circle cx="36" cy="36" r="2" fill="white" opacity="0.7"/>
  <circle cx="52" cy="36" r="2" fill="white" opacity="0.7"/>
</svg>
