<svg xmlns="http://www.w3.org/2000/svg" viewBox="0 0 64 64" fill="none">
  <!-- Ocean base -->
  <path d="M4 52 Q16 46 28 52 Q40 58 52 52 Q58 49 62 52" stroke="#3B82F6" stroke-width="2.5" fill="none" stroke-linecap="round"/>
  <!-- Palm tree trunk -->
  <path d="M22 54 Q20 44 24 34 Q26 28 28 22" stroke="#92400E" stroke-width="3.5" fill="none" stroke-linecap="round"/>
  <!-- Palm fronds -->
  <path d="M28 22 Q18 14 10 18" stroke="#16A34A" stroke-width="3" fill="none" stroke-linecap="round"/>
  <path d="M28 22 Q26 10 32 8" stroke="#16A34A" stroke-width="3" fill="none" stroke-linecap="round"/>
  <path d="M28 22 Q36 12 42 16" stroke="#16A34A" stroke-width="3" fill="none" stroke-linecap="round"/>
  <path d="M28 22 Q34 18 40 22" stroke="#22C55E" stroke-width="2.5" fill="none" stroke-linecap="round"/>
  <path d="M28 22 Q22 20 16 24" stroke="#22C55E" stroke-width="2.5" fill="none" stroke-linecap="round"/>
  <!-- Wind lines (trade wind from right) -->
  <path d="M42 28 Q52 24 60 28" stroke="#60A5FA" stroke-width="2.5" fill="none" stroke-linecap="round"/>
  <path d="M44 36 Q54 32 62 36" stroke="#93C5FD" stroke-width="2" fill="none" stroke-linecap="round"/>
  <path d="M46 44 Q54 40 60 44" stroke="#60A5FA" stroke-width="2" fill="none" stroke-linecap="round"/>
</svg>
